<svg xmlns="http://www.w3.org/2000/svg" width="256" height="256" viewBox="0 0 256 256" fill="none" stroke="#5898e0" stroke-width="12" stroke-linecap="round" stroke-linejoin="round"><rect x="80" y="80" width="96" height="96" rx="12"/><rect x="100" y="100" width="56" height="56" rx="6"/><line x1="104" y1="68" x2="104" y2="80"/><line x1="128" y1="68" x2="128" y2="80"/><line x1="152" y1="68" x2="152" y2="80"/><line x1="104" y1="176" x2="104" y2="188"/><line x1="128" y1="176" x2="128" y2="188"/><line x1="152" y1="176" x2="152" y2="188"/><line x1="68" y1="104" x2="80" y2="104"/><line x1="68" y1="128" x2="80" y2="128"/><line x1="68" y1="152" x2="80" y2="152"/><line x1="176" y1="104" x2="188" y2="104"/><line x1="176" y1="128" x2="188" y2="128"/><line x1="176" y1="152" x2="188" y2="152"/></svg>
